<?xml version="1.0"?>
<svg xmlns="http://www.w3.org/2000/svg" xmlns:xlink="http://www.w3.org/1999/xlink" version="1.1" width="220px" height="220px" viewBox="0 0 220 220"><rect x="0" y="0" width="220" height="220" fill="#ffffff" fill-opacity="1"/><path fill="#000000" fill-opacity="1" d="M23,23L65,23L65,29L23,29ZM71,23L89,23L89,29L71,29ZM95,23L101,23L101,29L95,29ZM107,23L113,23L113,29L107,29ZM131,23L149,23L149,29L131,29ZM155,23L197,23L197,29L155,29ZM23,29L29,29L29,35L23,35ZM59,29L65,29L65,35L59,35ZM71,29L89,29L89,35L71,35ZM125,29L143,29L143,35L125,35ZM155,29L161,29L161,35L155,35ZM191,29L197,29L197,35L191,35ZM23,35L29,35L29,41L23,41ZM35,35L53,35L53,41L35,41ZM59,35L65,35L65,41L59,41ZM71,35L77,35L77,41L71,41ZM83,35L95,35L95,41L83,41ZM101,35L107,35L107,41L101,41ZM113,35L125,35L125,41L113,41ZM137,35L143,35L143,41L137,41ZM155,35L161,35L161,41L155,41ZM167,35L185,35L185,41L167,41ZM191,35L197,35L197,41L191,41ZM23,41L29,41L29,47L23,47ZM35,41L53,41L53,47L35,47ZM59,41L65,41L65,47L59,47ZM71,41L83,41L83,47L71,47ZM89,41L95,41L95,47L89,47ZM107,41L119,41L119,47L107,47ZM131,41L137,41L137,47L131,47ZM155,41L161,41L161,47L155,47ZM167,41L185,41L185,47L167,47ZM191,41L197,41L197,47L191,47ZM23,47L29,47L29,53L23,53ZM35,47L53,47L53,53L35,53ZM59,47L65,47L65,53L59,53ZM101,47L113,47L113,53L101,53ZM137,47L149,47L149,53L137,53ZM155,47L161,47L161,53L155,53ZM167,47L185,47L185,53L167,53ZM191,47L197,47L197,53L191,53ZM23,53L29,53L29,59L23,59ZM59,53L65,53L65,59L59,59ZM71,53L77,53L77,59L71,59ZM89,53L131,53L131,59L89,59ZM137,53L143,53L143,59L137,59ZM155,53L161,53L161,59L155,59ZM191,53L197,53L197,59L191,59ZM23,59L65,59L65,65L23,65ZM71,59L77,59L77,65L71,65ZM83,59L89,59L89,65L83,65ZM95,59L101,59L101,65L95,65ZM107,59L113,59L113,65L107,65ZM119,59L125,59L125,65L119,65ZM131,59L137,59L137,65L131,65ZM143,59L149,59L149,65L143,65ZM155,59L197,59L197,65L155,65ZM77,65L83,65L83,71L77,71ZM95,65L101,65L101,71L95,71ZM107,65L113,65L113,71L107,71ZM119,65L131,65L131,71L119,71ZM137,65L143,65L143,71L137,71ZM23,71L35,71L35,77L23,77ZM47,71L65,71L65,77L47,77ZM89,71L95,71L95,77L89,77ZM101,71L113,71L113,77L101,77ZM125,71L149,71L149,77L125,77ZM161,71L167,71L167,77L161,77ZM173,71L197,71L197,77L173,77ZM35,77L53,77L53,83L35,83ZM65,77L71,77L71,83L65,83ZM77,77L89,77L89,83L77,83ZM95,77L101,77L101,83L95,83ZM113,77L119,77L119,83L113,83ZM137,77L149,77L149,83L137,83ZM155,77L167,77L167,83L155,83ZM179,77L185,77L185,83L179,83ZM23,83L29,83L29,89L23,89ZM35,83L47,83L47,89L35,89ZM59,83L71,83L71,89L59,89ZM89,83L119,83L119,89L89,89ZM131,83L137,83L137,89L131,89ZM143,83L185,83L185,89L143,89ZM191,83L197,83L197,89L191,89ZM23,89L53,89L53,95L23,95ZM71,89L77,89L77,95L71,95ZM83,89L95,89L95,95L83,95ZM101,89L107,89L107,95L101,95ZM119,89L125,89L125,95L119,95ZM137,89L143,89L143,95L137,95ZM161,89L167,89L167,95L161,95ZM173,89L179,89L179,95L173,95ZM23,95L53,95L53,101L23,101ZM59,95L71,95L71,101L59,101ZM83,95L89,95L89,101L83,101ZM95,95L107,95L107,101L95,101ZM119,95L131,95L131,101L119,101ZM137,95L149,95L149,101L137,101ZM161,95L167,95L167,101L161,101ZM173,95L191,95L191,101L173,101ZM23,101L35,101L35,107L23,107ZM41,101L47,101L47,107L41,107ZM53,101L59,101L59,107L53,107ZM77,101L83,101L83,107L77,107ZM101,101L125,101L125,107L101,107ZM137,101L149,101L149,107L137,107ZM161,101L173,101L173,107L161,107ZM179,101L185,101L185,107L179,107ZM23,107L29,107L29,113L23,113ZM35,107L41,107L41,113L35,113ZM53,107L71,107L71,113L53,113ZM77,107L89,107L89,113L77,113ZM119,107L125,107L125,113L119,113ZM131,107L161,107L161,113L131,113ZM167,107L191,107L191,113L167,113ZM29,113L35,113L35,119L29,119ZM53,113L59,113L59,119L53,119ZM71,113L77,113L77,119L71,119ZM95,113L101,113L101,119L95,119ZM107,113L113,113L113,119L107,119ZM119,113L125,113L125,119L119,119ZM137,113L143,113L143,119L137,119ZM149,113L155,113L155,119L149,119ZM161,113L167,113L167,119L161,119ZM185,113L191,113L191,119L185,119ZM23,119L29,119L29,125L23,125ZM47,119L77,119L77,125L47,125ZM89,119L95,119L95,125L89,125ZM101,119L113,119L113,125L101,125ZM119,119L125,119L125,125L119,125ZM137,119L161,119L161,125L137,125ZM173,119L191,119L191,125L173,125ZM23,125L29,125L29,131L23,131ZM71,125L77,125L77,131L71,131ZM83,125L89,125L89,131L83,131ZM95,125L101,125L101,131L95,131ZM143,125L149,125L149,131L143,131ZM155,125L161,125L161,131L155,131ZM167,125L185,125L185,131L167,131ZM191,125L197,125L197,131L191,131ZM59,131L65,131L65,137L59,137ZM71,131L77,131L77,137L71,137ZM89,131L113,131L113,137L89,137ZM131,131L161,131L161,137L131,137ZM167,131L197,131L197,137L167,137ZM41,137L53,137L53,143L41,143ZM71,137L77,137L77,143L71,143ZM83,137L95,137L95,143L83,143ZM101,137L107,137L107,143L101,143ZM137,137L143,137L143,143L137,143ZM161,137L167,137L167,143L161,143ZM179,137L191,137L191,143L179,143ZM23,143L41,143L41,149L23,149ZM47,143L53,143L53,149L47,149ZM59,143L65,143L65,149L59,149ZM83,143L89,143L89,149L83,149ZM95,143L107,143L107,149L95,149ZM137,143L179,143L179,149L137,149ZM71,149L77,149L77,155L71,155ZM83,149L89,149L89,155L83,155ZM101,149L113,149L113,155L101,155ZM119,149L125,149L125,155L119,155ZM143,149L149,149L149,155L143,155ZM167,149L185,149L185,155L167,155ZM23,155L65,155L65,161L23,161ZM77,155L83,155L83,161L77,161ZM113,155L119,155L119,161L113,161ZM131,155L137,155L137,161L131,161ZM143,155L149,155L149,161L143,161ZM155,155L161,155L161,161L155,161ZM167,155L173,155L173,161L167,161ZM179,155L185,155L185,161L179,161ZM191,155L197,155L197,161L191,161ZM23,161L29,161L29,167L23,167ZM59,161L65,161L65,167L59,167ZM71,161L83,161L83,167L71,167ZM95,161L101,161L101,167L95,167ZM107,161L113,161L113,167L107,167ZM125,161L137,161L137,167L125,167ZM143,161L149,161L149,167L143,167ZM167,161L191,161L191,167L167,167ZM23,167L29,167L29,173L23,173ZM35,167L53,167L53,173L35,173ZM59,167L65,167L65,173L59,173ZM71,167L77,167L77,173L71,173ZM83,167L95,167L95,173L83,173ZM101,167L113,167L113,173L101,173ZM119,167L125,167L125,173L119,173ZM137,167L173,167L173,173L137,173ZM191,167L197,167L197,173L191,173ZM23,173L29,173L29,179L23,179ZM35,173L53,173L53,179L35,179ZM59,173L65,173L65,179L59,179ZM77,173L83,173L83,179L77,179ZM95,173L101,173L101,179L95,179ZM161,173L191,173L191,179L161,179ZM23,179L29,179L29,185L23,185ZM35,179L53,179L53,185L35,185ZM59,179L65,179L65,185L59,185ZM89,179L113,179L113,185L89,185ZM119,179L125,179L125,185L119,185ZM131,179L137,179L137,185L131,185ZM149,179L167,179L167,185L149,185ZM179,179L197,179L197,185L179,185ZM23,185L29,185L29,191L23,191ZM59,185L65,185L65,191L59,191ZM71,185L77,185L77,191L71,191ZM83,185L95,185L95,191L83,191ZM101,185L107,185L107,191L101,191ZM143,185L161,185L161,191L143,191ZM167,185L185,185L185,191L167,191ZM23,191L65,191L65,197L23,197ZM71,191L83,191L83,197L71,197ZM95,191L107,191L107,197L95,197ZM125,191L131,191L131,197L125,197ZM155,191L161,191L161,197L155,197ZM167,191L173,191L173,197L167,197ZM185,191L191,191L191,197L185,197Z"/></svg>
