<?xml version="1.0" encoding="UTF-8"?>
<svg id="Layer_1" xmlns="http://www.w3.org/2000/svg" version="1.1" viewBox="0 0 1920 1080">
  <!-- Generator: Adobe Illustrator 29.1.0, SVG Export Plug-In . SVG Version: 2.1.0 Build 142)  -->
  <defs>
    <style>
      .st0 {
        fill: #333;
      }
    </style>
  </defs>
  <g>
    <path class="st0" d="M354.46,495.16c-18.13,0-35.64-2.06-52.52-6.18-16.89-4.12-30.8-9.47-41.71-16.07l23.48-53.14c10.3,5.98,21.78,10.77,34.45,14.37,12.67,3.61,24.97,5.41,36.92,5.41,7,0,12.51-.46,16.53-1.39,4.02-.93,6.95-2.26,8.8-4.02,1.85-1.75,2.78-3.86,2.78-6.33,0-3.91-2.16-7-6.49-9.27-4.33-2.26-10.04-4.17-17.15-5.72-7.11-1.54-14.88-3.19-23.33-4.94-8.45-1.75-16.94-4.07-25.49-6.95-8.55-2.88-16.37-6.69-23.48-11.43-7.11-4.74-12.82-10.97-17.15-18.69-4.33-7.72-6.49-17.35-6.49-28.89,0-13.39,3.76-25.59,11.28-36.61,7.52-11.02,18.74-19.82,33.68-26.42,14.93-6.59,33.52-9.89,55.77-9.89,14.62,0,29.04,1.54,43.25,4.63s26.98,7.83,38.31,14.21l-21.94,52.83c-10.71-5.35-21.06-9.37-31.05-12.05-9.99-2.67-19.73-4.02-29.2-4.02-7.01,0-12.57.62-16.68,1.85-4.12,1.24-7.06,2.89-8.8,4.94-1.75,2.06-2.63,4.33-2.63,6.8,0,3.71,2.16,6.64,6.49,8.8,4.33,2.16,10.04,3.97,17.15,5.41,7.11,1.44,14.93,2.99,23.48,4.63,8.54,1.65,17.04,3.92,25.49,6.8,8.44,2.89,16.22,6.7,23.33,11.43,7.11,4.74,12.82,10.92,17.15,18.54,4.33,7.62,6.49,17.1,6.49,28.42,0,13.19-3.76,25.29-11.28,36.3-7.52,11.02-18.69,19.88-33.52,26.57-14.83,6.69-33.47,10.04-55.92,10.04Z"/>
    <path class="st0" d="M527.78,490.22v-94.85l16.68,43.56-98.25-164.99h76.93l66.43,112.77h-44.8l67.04-112.77h70.44l-97.63,164.99,16.07-43.56v94.85h-72.92Z"/>
    <path class="st0" d="M691.53,490.22v-216.27h59.94l109.99,131.62h-27.81v-131.62h71.06v216.27h-59.94l-109.99-131.62h27.81v131.62h-71.06Z"/>
    <path class="st0" d="M1051.78,495.16c-17.3,0-33.32-2.73-48.04-8.19-14.73-5.46-27.5-13.23-38.31-23.33-10.81-10.09-19.21-22.04-25.18-35.84-5.98-13.8-8.96-29.04-8.96-45.73s2.98-31.92,8.96-45.73c5.97-13.8,14.36-25.75,25.18-35.84,10.81-10.09,23.58-17.87,38.31-23.33,14.72-5.46,30.74-8.19,48.04-8.19,21.21,0,40.01,3.71,56.39,11.12,16.37,7.41,29.92,18.13,40.63,32.13l-46.04,41.09c-6.39-8.03-13.44-14.26-21.16-18.69-7.72-4.43-16.43-6.64-26.11-6.64-7.62,0-14.52,1.24-20.7,3.71-6.18,2.47-11.48,6.08-15.91,10.81-4.43,4.74-7.88,10.46-10.35,17.15-2.47,6.7-3.71,14.16-3.71,22.4s1.24,15.71,3.71,22.4c2.47,6.7,5.92,12.41,10.35,17.15,4.43,4.74,9.73,8.34,15.91,10.81,6.18,2.47,13.08,3.71,20.7,3.71,9.68,0,18.38-2.21,26.11-6.64,7.72-4.43,14.78-10.66,21.16-18.69l46.04,41.09c-10.71,13.8-24.26,24.46-40.63,31.98-16.37,7.52-35.17,11.28-56.39,11.28Z"/>
  </g>
  <g>
    <path class="st0" d="M393.1,721.54v-216.27h72.91v159.73h97.63v56.54h-170.55Z"/>
    <path class="st0" d="M583.72,721.54v-216.27h72.92v216.27h-72.92Z"/>
    <path class="st0" d="M691.86,721.54v-216.27h59.94l109.99,131.62h-27.81v-131.62h71.06v216.27h-59.94l-109.99-131.62h27.81v131.62h-71.06Z"/>
    <path class="st0" d="M940.26,721.54v-216.27h71.68v216.27h-71.68ZM1005.45,675.2l-4.02-80.02,81.57-89.91h79.4l-91.45,100.72-40.47,41.4-25.03,27.81ZM1082.38,721.54l-63.65-84.04,47.27-50.05,100.72,134.09h-84.35Z"/>
  </g>
  <path class="st0" d="M1269.21,723.68l39.62-199.41,16.89,91.59-137.05-346.85h153.94l93.53,238.38h-96.78l191.61-238.38h153.94l-274.75,346.85,51.96-91.59-39.62,199.41h-153.29Z"/>
</svg>