<?xml version="1.0" encoding="UTF-8"?>
<svg id="Layer_1" xmlns="http://www.w3.org/2000/svg" version="1.1" viewBox="0 0 1920 1080">
  <!-- Generator: Adobe Illustrator 29.1.0, SVG Export Plug-In . SVG Version: 2.1.0 Build 142)  -->
  <defs>
    <style>
      .st0 {
        fill: #333;
      }

      .st1 {
        fill: none;
      }
    </style>
  </defs>
  <g>
    <path class="st1" d="M493.17,571.18c-6.66,27.96-18.7,53.83-34.98,76.45-3.86-4.5-8.71-8.13-14.2-10.56-4.97-2.21-10.47-3.43-16.27-3.43-22.18,0-40.16,17.98-40.16,40.16,0,5.14.97,10.05,2.73,14.57,2.18,5.61,5.59,10.61,9.9,14.67-20.59,13.44-43.59,23.48-68.21,29.34-2.15.51-4.32.76-6.47.76-7.21,0-14.21-2.8-19.33-7.92-.19-.19-.38-.38-.56-.58-.37-.39-.73-.8-1.07-1.22-.35-.41-.68-.84-1-1.29-4.99-6.84-13.06-11.28-22.17-11.28s-17.18,4.44-22.17,11.28c-.32.44-.65.87-1,1.29h0c-.35.42-.71.83-1.07,1.22h0c-.46.5-.94.97-1.43,1.42-.5.45-1,.87-1.52,1.29-1.04.81-2.14,1.55-3.29,2.21h0c-.68.39-1.39.75-2.11,1.08-.24.11-.48.22-.73.32-.48.21-.97.4-1.47.57-.5.18-1,.34-1.5.49-.26.08-.51.15-.77.21-.51.14-1.02.25-1.54.36-1.81.37-3.67.55-5.54.55-2.15,0-4.32-.25-6.47-.76-26.7-6.35-51.49-17.62-73.36-32.81,3.89-4.47,6.81-9.81,8.43-15.69.94-3.4,1.44-6.98,1.44-10.68,0-22.18-17.98-40.16-40.16-40.16-3.55,0-6.99.46-10.27,1.33-5.9,1.55-11.28,4.43-15.78,8.27-14.52-21.4-25.33-45.53-31.5-71.45-2.54-10.66,1.39-21.98,10.24-28.44,6.84-4.99,11.28-13.06,11.28-22.17s-4.44-17.18-11.28-22.17c-8.85-6.46-12.78-17.78-10.24-28.44,5.63-23.66,15.12-45.82,27.78-65.78,3.89,4.49,8.77,8.11,14.29,10.51,4.92,2.15,10.35,3.35,16.06,3.35,22.18,0,40.16-17.98,40.16-40.16,0-6.76-1.68-13.14-4.63-18.73-2.8-5.31-6.76-9.91-11.54-13.48,23.24-17.26,50.02-30,79.07-36.91,2.15-.51,4.32-.76,6.47-.76,7.21,0,14.21,2.8,19.33,7.92.19.19.38.38.56.58.37.39.73.8,1.07,1.22.35.41.68.84,1,1.29,4.99,6.84,13.06,11.28,22.17,11.28s17.18-4.44,22.17-11.28c.32-.44.65-.87,1-1.29h0c.35-.42.71-.83,1.07-1.22h0c.46-.5.94-.97,1.43-1.42.5-.45,1-.87,1.52-1.29,1.04-.81,2.14-1.55,3.29-2.21h0c.68-.39,1.39-.75,2.11-1.08.24-.11.48-.22.73-.32.48-.21.97-.4,1.47-.57.5-.18,1-.34,1.5-.49.26-.08.51-.15.77-.21.51-.14,1.02-.25,1.54-.36,1.81-.37,3.67-.55,5.54-.55,2.15,0,4.32.25,6.47.76,27.51,6.54,52.99,18.31,75.35,34.2-5.32,3.03-9.89,7.24-13.33,12.28-4.41,6.44-6.99,14.24-6.99,22.63,0,22.18,17.98,40.16,40.16,40.16,8.08,0,15.62-2.39,21.92-6.51,5.12-3.33,9.42-7.81,12.56-13.06,14.53,21.41,25.35,45.54,31.52,71.48,2.54,10.66-1.39,21.98-10.24,28.44-6.84,4.99-11.28,13.06-11.28,22.17s4.44,17.18,11.28,22.17c8.85,6.46,12.78,17.78,10.24,28.44Z"/>
    <path class="st0" d="M390.29,688.36c-19.07,12.41-40.15,21.49-62.41,26.79-.78.18-1.58.28-2.37.28-3.1,0-5.97-1.39-7.67-3.73-8.47-11.61-22.11-18.54-36.47-18.54s-28,6.93-36.47,18.54c-1.71,2.34-4.57,3.73-7.67,3.73-.8,0-1.59-.09-2.37-.28-24.86-5.92-48.26-16.57-69.03-31.28-1.62,5.88-4.54,11.23-8.43,15.69,21.87,15.18,46.66,26.45,73.36,32.81,2.15.51,4.32.76,6.47.76,1.87,0,3.73-.19,5.54-.55.52-.11,1.03-.22,1.54-.36.25-.06.51-.14.77-.21.5-.15,1-.31,1.5-.49.5-.18.99-.37,1.47-.57.24-.1.48-.21.73-.32.72-.32,1.42-.68,2.11-1.08h0c1.14-.65,2.24-1.39,3.29-2.21.52-.41,1.03-.84,1.52-1.29.49-.45.97-.92,1.43-1.41h0c.37-.4.73-.8,1.07-1.22h0c.35-.42.68-.85,1-1.29,4.99-6.84,13.06-11.28,22.17-11.28s17.18,4.44,22.17,11.28c.32.44.65.87,1,1.29.35.42.7.83,1.07,1.22.18.19.37.39.56.58,5.12,5.12,12.12,7.92,19.33,7.92,2.15,0,4.32-.25,6.47-.76,24.62-5.86,47.62-15.9,68.21-29.34-4.31-4.06-7.72-9.06-9.9-14.67ZM90.24,557.03c11.61-8.47,18.54-22.11,18.54-36.47s-6.93-28-18.54-36.47c-2.98-2.18-4.37-6.21-3.46-10.04,5.02-21.08,13.44-41.11,24.85-59.37-5.52-2.41-10.4-6.02-14.29-10.51-12.66,19.96-22.15,42.12-27.78,65.78-2.54,10.66,1.39,21.98,10.24,28.44,6.84,4.99,11.28,13.06,11.28,22.17s-4.44,17.18-11.28,22.17c-8.85,6.46-12.78,17.78-10.24,28.44,6.17,25.93,16.98,50.05,31.5,71.45,4.51-3.85,9.88-6.72,15.78-8.27-14.08-20.32-24.31-43.11-30.06-67.28-.91-3.83.48-7.87,3.46-10.04ZM482.94,542.74c-6.84-4.99-11.28-13.06-11.28-22.17s4.44-17.18,11.28-22.17c8.85-6.46,12.78-17.78,10.24-28.44-6.17-25.94-16.99-50.07-31.52-71.48-3.14,5.25-7.45,9.72-12.56,13.06,12.44,19.1,21.55,40.23,26.86,62.53.91,3.83-.48,7.87-3.46,10.04-11.61,8.47-18.54,22.11-18.54,36.47s6.93,28,18.54,36.47c2.98,2.18,4.37,6.21,3.46,10.04-6.01,25.25-16.9,48.99-31.97,69.99,5.49,2.43,10.34,6.07,14.2,10.56,16.28-22.62,28.33-48.49,34.98-76.45,2.54-10.66-1.39-21.98-10.24-28.44ZM331.98,308.76c-2.15-.51-4.32-.76-6.47-.76-1.87,0-3.73.19-5.54.55-.52.11-1.03.22-1.54.36-.25.06-.51.14-.77.21-.5.15-1,.31-1.5.49-.5.18-.99.37-1.47.57-.24.1-.48.21-.73.32-.72.32-1.42.68-2.11,1.08h0c-1.14.65-2.24,1.39-3.29,2.21-.52.41-1.03.84-1.52,1.29-.49.45-.97.92-1.43,1.41h0c-.37.4-.73.8-1.07,1.22h0c-.35.42-.68.85-1,1.29-4.99,6.84-13.06,11.28-22.17,11.28s-17.18-4.44-22.17-11.28c-.32-.44-.65-.87-1-1.29-.35-.42-.7-.83-1.07-1.22-.18-.19-.37-.39-.56-.58-5.12-5.12-12.12-7.92-19.33-7.92-2.15,0-4.32.25-6.47.76-29.05,6.91-55.83,19.65-79.07,36.91,4.78,3.56,8.73,8.17,11.54,13.48,21.4-15.69,45.73-27,71.64-33.17.78-.18,1.58-.28,2.37-.28,3.1,0,5.97,1.39,7.67,3.73,8.47,11.61,22.11,18.54,36.47,18.54s28-6.93,36.47-18.55c1.71-2.34,4.57-3.73,7.67-3.73.8,0,1.59.09,2.37.28,23.71,5.65,46.09,15.59,66.12,29.27,3.44-5.04,8.01-9.25,13.33-12.28-22.36-15.89-47.84-27.66-75.35-34.2Z"/>
  </g>
  <circle class="st0" cx="129.73" cy="378.96" r="31.27"/>
  <circle class="st0" cx="426.52" cy="378.96" r="31.27"/>
  <circle class="st0" cx="426.52" cy="671.02" r="31.27"/>
  <circle class="st0" cx="129.73" cy="671.02" r="31.27"/>
  <g>
    <path class="st1" d="M406.08,553.82c-3.97,16.7-11.17,32.14-20.89,45.65-2.31-2.68-5.2-4.86-8.48-6.31-2.97-1.32-6.25-2.05-9.71-2.05-13.24,0-23.98,10.74-23.98,23.98,0,3.07.58,6,1.63,8.7,1.3,3.35,3.34,6.34,5.91,8.76-12.29,8.03-26.03,14.02-40.73,17.52-1.28.31-2.58.45-3.87.45-4.31,0-8.49-1.67-11.54-4.73-.11-.11-.23-.23-.33-.35-.22-.23-.43-.48-.64-.73-.21-.25-.41-.5-.6-.77-2.98-4.08-7.8-6.74-13.24-6.74s-10.26,2.65-13.24,6.74c-.19.26-.39.52-.6.77h0c-.21.25-.42.49-.64.73h0c-.27.3-.56.58-.85.85-.3.27-.6.52-.91.77-.62.49-1.28.93-1.96,1.32h0c-.41.23-.83.45-1.26.64-.14.07-.29.13-.43.19-.29.12-.58.24-.88.34-.3.11-.6.2-.89.29-.16.05-.31.09-.46.13-.3.08-.61.15-.92.21-1.08.22-2.19.33-3.31.33-1.29,0-2.58-.15-3.87-.45-15.94-3.79-30.75-10.52-43.81-19.59,2.33-2.67,4.07-5.86,5.03-9.37.56-2.03.86-4.17.86-6.38,0-13.24-10.74-23.98-23.98-23.98-2.12,0-4.17.27-6.13.79-3.52.93-6.73,2.64-9.43,4.94-8.67-12.78-15.13-27.19-18.81-42.67-1.52-6.37.83-13.12,6.11-16.98,4.08-2.98,6.74-7.8,6.74-13.24s-2.65-10.26-6.74-13.24c-5.29-3.86-7.63-10.62-6.11-16.98,3.36-14.13,9.03-27.36,16.59-39.28,2.33,2.68,5.24,4.84,8.53,6.28,2.94,1.29,6.18,2,9.59,2,13.24,0,23.98-10.74,23.98-23.98,0-4.04-1-7.85-2.77-11.18-1.67-3.17-4.03-5.92-6.89-8.05,13.88-10.31,29.87-17.91,47.22-22.04,1.28-.31,2.58-.45,3.87-.45,4.31,0,8.49,1.67,11.54,4.73.11.11.23.23.33.35.22.23.43.48.64.73.21.25.41.5.6.77,2.98,4.08,7.8,6.74,13.24,6.74s10.26-2.65,13.24-6.74c.19-.26.39-.52.6-.77h0c.21-.25.42-.49.64-.73h0c.27-.3.56-.58.85-.85.3-.27.6-.52.91-.77.62-.49,1.28-.93,1.96-1.32h0c.41-.23.83-.45,1.26-.64.14-.07.29-.13.43-.19.29-.12.58-.24.88-.34.3-.11.6-.2.89-.29.16-.05.31-.09.46-.13.31-.08.61-.15.92-.21,1.08-.22,2.19-.33,3.31-.33,1.29,0,2.58.15,3.87.45,16.43,3.91,31.64,10.94,44.99,20.43-3.18,1.81-5.91,4.32-7.96,7.33-2.63,3.85-4.17,8.5-4.17,13.52,0,13.24,10.74,23.98,23.98,23.98,4.83,0,9.33-1.43,13.09-3.89,3.05-1.99,5.63-4.66,7.5-7.8,8.68,12.79,15.14,27.2,18.82,42.69,1.52,6.37-.83,13.12-6.11,16.98-4.08,2.98-6.74,7.8-6.74,13.24s2.65,10.26,6.74,13.24c5.29,3.86,7.63,10.62,6.11,16.98Z"/>
    <path class="st0" d="M344.64,623.79c-11.39,7.41-23.98,12.84-37.27,16-.47.11-.94.17-1.42.17-1.85,0-3.56-.83-4.58-2.23-5.06-6.93-13.2-11.07-21.78-11.07s-16.72,4.14-21.78,11.07c-1.02,1.4-2.73,2.23-4.58,2.23-.48,0-.95-.06-1.42-.17-14.85-3.53-28.82-9.89-41.22-18.68-.97,3.51-2.71,6.71-5.03,9.37,13.06,9.07,27.86,15.8,43.81,19.59,1.28.31,2.58.45,3.87.45,1.12,0,2.23-.11,3.31-.33.31-.06.62-.13.92-.21.15-.04.3-.08.46-.13.3-.09.6-.19.89-.29.3-.11.59-.22.88-.34.14-.06.29-.12.43-.19.43-.19.85-.41,1.26-.64h0c.68-.39,1.34-.83,1.96-1.32.31-.24.61-.5.91-.77.29-.27.58-.55.85-.84h0c.22-.24.44-.48.64-.73h0c.21-.25.41-.51.6-.77,2.98-4.08,7.8-6.74,13.24-6.74s10.26,2.65,13.24,6.74c.19.26.39.52.6.77.21.25.42.49.64.73.11.12.22.23.33.35,3.05,3.06,7.24,4.73,11.54,4.73,1.29,0,2.58-.15,3.87-.45,14.7-3.5,28.44-9.5,40.73-17.52-2.57-2.42-4.61-5.41-5.91-8.76ZM165.47,545.37c6.93-5.06,11.07-13.2,11.07-21.78s-4.14-16.72-11.07-21.78c-1.78-1.3-2.61-3.71-2.06-6,2.99-12.59,8.02-24.55,14.84-35.45-3.3-1.44-6.21-3.6-8.53-6.28-7.56,11.92-13.23,25.15-16.59,39.28-1.52,6.37.83,13.12,6.11,16.98,4.08,2.98,6.74,7.8,6.74,13.24s-2.65,10.26-6.74,13.24c-5.29,3.86-7.63,10.62-6.11,16.98,3.68,15.48,10.14,29.89,18.81,42.67,2.69-2.3,5.9-4.01,9.43-4.94-8.41-12.13-14.52-25.75-17.95-40.18-.55-2.29.29-4.7,2.06-6ZM399.97,536.83c-4.08-2.98-6.74-7.8-6.74-13.24s2.65-10.26,6.74-13.24c5.29-3.86,7.63-10.62,6.11-16.98-3.69-15.49-10.14-29.9-18.82-42.69-1.87,3.14-4.45,5.81-7.5,7.8,7.43,11.41,12.87,24.02,16.04,37.34.55,2.29-.29,4.7-2.06,6-6.93,5.06-11.07,13.2-11.07,21.78s4.14,16.72,11.07,21.78c1.78,1.3,2.61,3.71,2.06,6-3.59,15.08-10.09,29.25-19.09,41.79,3.28,1.45,6.17,3.62,8.48,6.31,9.72-13.51,16.92-28.96,20.89-45.65,1.52-6.37-.83-13.12-6.11-16.98ZM309.82,397.11c-1.28-.31-2.58-.45-3.87-.45-1.12,0-2.23.11-3.31.33-.31.06-.61.13-.92.21-.15.04-.3.08-.46.13-.3.09-.6.19-.89.29-.3.11-.59.22-.88.34-.14.06-.29.12-.43.19-.43.19-.85.41-1.26.64h0c-.68.39-1.34.83-1.96,1.32-.31.24-.61.5-.91.77-.29.27-.58.55-.85.84h0c-.22.24-.43.48-.64.73h0c-.21.25-.41.51-.6.77-2.98,4.08-7.8,6.74-13.24,6.74s-10.26-2.65-13.24-6.74c-.19-.26-.39-.52-.6-.77-.21-.25-.42-.49-.64-.73-.11-.12-.22-.23-.33-.35-3.05-3.06-7.24-4.73-11.54-4.73-1.29,0-2.58.15-3.87.45-17.35,4.13-33.34,11.73-47.22,22.04,2.85,2.13,5.21,4.88,6.89,8.05,12.78-9.37,27.31-16.12,42.78-19.8.47-.11.94-.17,1.42-.17,1.85,0,3.56.83,4.58,2.23,5.06,6.93,13.2,11.07,21.78,11.07s16.72-4.14,21.78-11.08c1.02-1.4,2.73-2.23,4.58-2.23.48,0,.95.06,1.42.17,14.16,3.37,27.52,9.31,39.48,17.48,2.05-3.01,4.78-5.52,7.96-7.33-13.35-9.49-28.57-16.52-44.99-20.43Z"/>
  </g>
  <circle class="st0" cx="189.05" cy="439.03" r="18.67"/>
  <circle class="st0" cx="366.27" cy="439.03" r="18.67"/>
  <circle class="st0" cx="366.27" cy="613.44" r="18.67"/>
  <circle class="st0" cx="189.05" cy="613.44" r="18.67"/>
  <g>
    <path class="st0" d="M615.46,591.66c-10.47,0-20.59-1.19-30.34-3.57-9.76-2.38-17.79-5.47-24.1-9.28l13.57-30.7c5.95,3.45,12.58,6.22,19.9,8.3,7.32,2.08,14.43,3.12,21.33,3.12,4.04,0,7.23-.27,9.55-.8,2.32-.54,4.02-1.31,5.09-2.32,1.07-1.01,1.61-2.23,1.61-3.66,0-2.26-1.25-4.04-3.75-5.35-2.5-1.31-5.8-2.41-9.91-3.3s-8.6-1.84-13.48-2.86c-4.88-1.01-9.79-2.35-14.73-4.02-4.94-1.67-9.46-3.87-13.57-6.6-4.11-2.74-7.41-6.34-9.91-10.8s-3.75-10.02-3.75-16.69c0-7.73,2.17-14.78,6.52-21.15,4.34-6.36,10.83-11.45,19.46-15.26,8.63-3.81,19.37-5.71,32.22-5.71,8.45,0,16.78.89,24.99,2.68s15.59,4.52,22.13,8.21l-12.67,30.52c-6.19-3.09-12.17-5.41-17.94-6.96-5.77-1.54-11.4-2.32-16.87-2.32-4.05,0-7.26.36-9.64,1.07-2.38.71-4.08,1.67-5.09,2.86-1.01,1.19-1.52,2.5-1.52,3.93,0,2.14,1.25,3.84,3.75,5.09,2.5,1.25,5.8,2.29,9.91,3.12,4.11.83,8.63,1.73,13.57,2.68,4.94.95,9.85,2.26,14.73,3.93,4.88,1.67,9.37,3.87,13.48,6.6,4.11,2.74,7.41,6.31,9.91,10.71,2.5,4.4,3.75,9.88,3.75,16.42,0,7.62-2.17,14.61-6.52,20.97-4.35,6.37-10.8,11.49-19.37,15.35-8.57,3.86-19.34,5.8-32.31,5.8Z"/>
    <path class="st0" d="M715.6,588.8v-54.8l9.64,25.17-56.76-95.32h44.45l38.38,65.15h-25.88l38.73-65.15h40.7l-56.41,95.32,9.28-25.17v54.8h-42.13Z"/>
    <path class="st0" d="M810.2,588.8v-124.95h34.63l63.55,76.04h-16.06v-76.04h41.05v124.95h-34.63l-63.55-76.04h16.06v76.04h-41.05Z"/>
    <path class="st0" d="M1018.33,591.66c-10,0-19.25-1.58-27.76-4.73-8.51-3.15-15.89-7.64-22.13-13.48-6.25-5.83-11.1-12.73-14.55-20.71-3.45-7.97-5.18-16.78-5.18-26.42s1.72-18.44,5.18-26.42c3.45-7.97,8.3-14.87,14.55-20.71,6.25-5.83,13.62-10.32,22.13-13.48,8.51-3.15,17.76-4.73,27.76-4.73,12.26,0,23.12,2.14,32.58,6.43s17.28,10.47,23.47,18.56l-26.6,23.74c-3.69-4.64-7.76-8.24-12.23-10.8-4.46-2.56-9.49-3.84-15.08-3.84-4.4,0-8.39.71-11.96,2.14s-6.63,3.51-9.19,6.25c-2.56,2.74-4.55,6.04-5.98,9.91-1.43,3.87-2.14,8.18-2.14,12.94s.71,9.08,2.14,12.94c1.43,3.87,3.42,7.17,5.98,9.91,2.56,2.74,5.62,4.82,9.19,6.25s7.56,2.14,11.96,2.14c5.59,0,10.62-1.28,15.08-3.84,4.46-2.56,8.54-6.16,12.23-10.8l26.6,23.74c-6.19,7.97-14.01,14.13-23.47,18.47s-20.32,6.52-32.58,6.52Z"/>
  </g>
  <g>
    <path class="st0" d="M1237.78,583.45v-124.95h42.13v92.28h56.41v32.67h-98.53Z"/>
    <path class="st0" d="M1347.92,583.45v-124.95h42.13v124.95h-42.13Z"/>
    <path class="st0" d="M1410.39,583.45v-124.95h34.63l63.55,76.04h-16.06v-76.04h41.05v124.95h-34.63l-63.55-76.04h16.06v76.04h-41.05Z"/>
    <path class="st0" d="M1553.9,583.45v-124.95h41.41v124.95h-41.41ZM1591.56,556.67l-2.32-46.23,47.12-51.94h45.87l-52.84,58.19-23.38,23.92-14.46,16.06ZM1636.01,583.45l-36.77-48.55,27.31-28.92,58.19,77.47h-48.73Z"/>
  </g>
  <path class="st0" d="M1100.75,585.62l13.61-68.5,5.8,31.46-47.08-119.15h52.88l32.13,81.89h-33.25l65.82-81.89h52.88l-94.38,119.15,17.85-31.46-13.61,68.5h-52.66Z"/>
  <path class="st0" d="M1716.2,584.68l13.61-68.5,5.8,31.46-47.08-119.15h52.88l32.13,81.89h-33.25l65.82-81.89h52.88l-94.38,119.15,17.85-31.46-13.61,68.5h-52.66Z"/>
</svg>