<?xml version="1.0" encoding="UTF-8"?>
<svg id="Layer_1" xmlns="http://www.w3.org/2000/svg" version="1.1" viewBox="0 0 1920 1080">
  <!-- Generator: Adobe Illustrator 29.1.0, SVG Export Plug-In . SVG Version: 2.1.0 Build 142)  -->
  <defs>
    <style>
      .st0 {
        fill: #333;
      }

      .st1 {
        fill: none;
      }
    </style>
  </defs>
  <g>
    <path class="st1" d="M1301.97,619.78c-11.28,47.39-31.7,91.23-59.29,129.57-6.55-7.62-14.76-13.78-24.07-17.9-8.43-3.74-17.75-5.82-27.57-5.82-37.59,0-68.06,30.47-68.06,68.06,0,8.71,1.64,17.03,4.62,24.69,3.7,9.51,9.48,17.98,16.78,24.86-34.89,22.78-73.87,39.8-115.6,49.73-3.64.87-7.32,1.29-10.97,1.29-12.22,0-24.09-4.74-32.76-13.42-.32-.32-.64-.65-.95-.98-.63-.66-1.23-1.35-1.82-2.06-.59-.7-1.15-1.43-1.7-2.18-8.46-11.59-22.14-19.12-37.58-19.12s-29.12,7.53-37.58,19.12c-.54.75-1.11,1.47-1.7,2.18h0c-.59.72-1.2,1.4-1.82,2.06h0c-.78.84-1.59,1.64-2.42,2.4-.84.76-1.7,1.48-2.58,2.18-1.77,1.38-3.63,2.63-5.57,3.74h-.01c-1.16.66-2.35,1.27-3.57,1.83-.41.19-.82.37-1.23.54-.82.35-1.65.67-2.49.97-.84.3-1.69.58-2.54.83-.44.13-.87.25-1.3.36-.86.23-1.73.43-2.61.61-3.07.62-6.22.94-9.39.94-3.65,0-7.33-.42-10.97-1.29-45.25-10.77-87.26-29.87-124.33-55.6,6.6-7.57,11.55-16.63,14.29-26.6,1.59-5.76,2.44-11.83,2.44-18.1,0-37.59-30.47-68.06-68.06-68.06-6.01,0-11.84.78-17.4,2.25-10,2.63-19.11,7.5-26.75,14.02-24.61-36.27-42.93-77.16-53.38-121.1-4.31-18.07,2.35-37.25,17.35-48.2,11.59-8.46,19.12-22.14,19.12-37.58s-7.53-29.12-19.12-37.58c-15-10.95-21.66-30.13-17.35-48.2,9.54-40.1,25.63-77.66,47.08-111.49,6.6,7.61,14.86,13.74,24.22,17.82,8.34,3.65,17.54,5.67,27.22,5.67,37.59,0,68.06-30.47,68.06-68.06,0-11.46-2.84-22.27-7.85-31.74-4.75-9-11.45-16.8-19.55-22.84,39.38-29.25,84.78-50.84,134.01-62.55,3.64-.87,7.32-1.29,10.97-1.29,12.22,0,24.09,4.74,32.76,13.42.32.32.64.65.95.98.63.66,1.23,1.35,1.82,2.06.59.7,1.15,1.43,1.7,2.18,8.46,11.59,22.14,19.12,37.58,19.12s29.12-7.53,37.58-19.12c.55-.75,1.11-1.48,1.7-2.18h0c.59-.72,1.2-1.4,1.82-2.06h0c.78-.84,1.59-1.64,2.42-2.4.84-.76,1.7-1.48,2.58-2.18,1.77-1.38,3.63-2.63,5.57-3.74h.01c1.16-.66,2.35-1.27,3.57-1.83.41-.19.82-.37,1.23-.54.82-.35,1.65-.67,2.49-.97.84-.3,1.69-.58,2.54-.83.44-.13.87-.25,1.3-.36.87-.23,1.73-.43,2.61-.61,3.07-.62,6.22-.94,9.39-.94,3.65,0,7.33.42,10.97,1.29,46.62,11.09,89.81,31.04,127.7,57.97-9.02,5.13-16.76,12.27-22.59,20.81-7.47,10.92-11.84,24.13-11.84,38.36,0,37.59,30.47,68.06,68.06,68.06,13.7,0,26.47-4.05,37.15-11.03,8.67-5.65,15.97-13.23,21.29-22.13,24.63,36.29,42.96,77.19,53.42,121.15,4.31,18.07-2.35,37.25-17.35,48.2-11.59,8.46-19.12,22.14-19.12,37.58s7.53,29.12,19.12,37.58c15,10.95,21.66,30.13,17.35,48.2Z"/>
    <path class="st0" d="M1127.6,818.38c-32.32,21.03-68.05,36.43-105.77,45.41-1.32.31-2.67.47-4.02.47-5.25,0-10.11-2.36-13-6.33-14.36-19.68-37.47-31.43-61.81-31.43s-47.45,11.75-61.81,31.43c-2.89,3.97-7.75,6.33-13,6.33-1.35,0-2.7-.16-4.02-.47-42.14-10.03-81.8-28.08-116.99-53.02-2.74,9.97-7.69,19.03-14.29,26.6,37.07,25.73,79.08,44.83,124.33,55.6,3.64.87,7.32,1.29,10.97,1.29,3.17,0,6.32-.32,9.39-.94.88-.18,1.75-.38,2.61-.61.43-.11.86-.23,1.3-.36.85-.25,1.7-.53,2.54-.83.84-.3,1.67-.62,2.49-.97.41-.17.82-.35,1.23-.54,1.22-.55,2.41-1.16,3.57-1.83h.01c1.94-1.1,3.8-2.35,5.57-3.74.88-.69,1.74-1.42,2.58-2.18.83-.76,1.64-1.56,2.42-2.39h0c.63-.68,1.24-1.36,1.82-2.06h0c.59-.72,1.16-1.44,1.7-2.19,8.46-11.59,22.14-19.12,37.58-19.12s29.12,7.53,37.58,19.12c.55.75,1.11,1.48,1.7,2.18.59.71,1.19,1.4,1.82,2.06.31.33.63.66.95.98,8.67,8.68,20.54,13.42,32.76,13.42,3.65,0,7.33-.42,10.97-1.29,41.73-9.93,80.71-26.95,115.6-49.73-7.3-6.88-13.08-15.35-16.78-24.86ZM619.07,595.81c19.68-14.36,31.43-37.47,31.43-61.81s-11.75-47.45-31.43-61.81c-5.05-3.69-7.41-10.53-5.86-17.02,8.5-35.72,22.77-69.67,42.12-100.62-9.36-4.08-17.62-10.21-24.22-17.82-21.45,33.83-37.54,71.39-47.08,111.49-4.31,18.07,2.35,37.25,17.35,48.2,11.59,8.46,19.12,22.14,19.12,37.58s-7.53,29.12-19.12,37.58c-15,10.95-21.66,30.13-17.35,48.2,10.45,43.94,28.77,84.83,53.38,121.1,7.64-6.52,16.75-11.39,26.75-14.02-23.87-34.44-41.2-73.07-50.95-114.03-1.55-6.49.81-13.33,5.86-17.02ZM1284.62,571.58c-11.59-8.46-19.12-22.14-19.12-37.58s7.53-29.12,19.12-37.58c15-10.95,21.66-30.13,17.35-48.2-10.46-43.96-28.79-84.86-53.42-121.15-5.32,8.9-12.62,16.48-21.29,22.13,21.09,32.37,36.53,68.18,45.53,105.97,1.55,6.49-.81,13.33-5.86,17.02-19.68,14.36-31.43,37.47-31.43,61.81s11.75,47.45,31.43,61.81c5.05,3.69,7.41,10.53,5.86,17.02-10.19,42.79-28.64,83.03-54.18,118.62,9.31,4.12,17.52,10.28,24.07,17.9,27.59-38.34,48.01-82.18,59.29-129.57,4.31-18.07-2.35-37.25-17.35-48.2ZM1028.78,175.03c-3.64-.87-7.32-1.29-10.97-1.29-3.17,0-6.32.32-9.39.94-.88.18-1.74.38-2.61.61-.43.11-.86.23-1.3.36-.85.25-1.7.53-2.54.83-.84.3-1.67.62-2.49.97-.41.17-.82.35-1.23.54-1.22.55-2.41,1.16-3.57,1.83h-.01c-1.94,1.1-3.8,2.35-5.57,3.74-.88.69-1.74,1.42-2.58,2.18-.83.76-1.64,1.56-2.42,2.39h0c-.62.67-1.23,1.35-1.82,2.06h0c-.59.71-1.15,1.44-1.7,2.19-8.46,11.59-22.14,19.12-37.58,19.12s-29.12-7.53-37.58-19.12c-.55-.75-1.11-1.48-1.7-2.18-.59-.71-1.19-1.4-1.82-2.06-.31-.33-.63-.66-.95-.98-8.67-8.68-20.54-13.42-32.76-13.42-3.65,0-7.33.42-10.97,1.29-49.23,11.71-94.63,33.3-134.01,62.55,8.1,6.04,14.8,13.84,19.55,22.84,36.27-26.6,77.5-45.76,121.41-56.21,1.32-.31,2.67-.47,4.02-.47,5.25,0,10.11,2.36,13,6.33,14.36,19.68,37.47,31.43,61.81,31.43s47.45-11.75,61.81-31.44c2.89-3.96,7.75-6.32,13-6.32,1.35,0,2.7.16,4.02.47,40.18,9.57,78.12,26.42,112.06,49.6,5.83-8.54,13.57-15.68,22.59-20.81-37.89-26.93-81.08-46.88-127.7-57.97Z"/>
  </g>
  <circle class="st0" cx="686" cy="294" r="53"/>
  <circle class="st0" cx="1189" cy="294" r="53"/>
  <circle class="st0" cx="1189" cy="789" r="53"/>
  <circle class="st0" cx="686" cy="789" r="53"/>
  <g>
    <path class="st1" d="M1154.36,590.35c-6.74,28.3-18.93,54.48-35.41,77.37-3.91-4.55-8.81-8.23-14.37-10.69-5.03-2.23-10.6-3.48-16.46-3.48-22.45,0-40.64,18.2-40.64,40.64,0,5.2.98,10.17,2.76,14.74,2.21,5.68,5.66,10.74,10.02,14.85-20.83,13.6-44.11,23.77-69.03,29.7-2.17.52-4.37.77-6.55.77-7.3,0-14.39-2.83-19.56-8.01-.19-.19-.38-.39-.57-.59-.38-.39-.73-.81-1.09-1.23-.35-.42-.69-.85-1.02-1.3-5.05-6.92-13.22-11.42-22.44-11.42s-17.39,4.5-22.44,11.42c-.32.45-.66.88-1.02,1.3h0c-.35.43-.72.84-1.09,1.23h0c-.47.5-.95.98-1.45,1.43-.5.45-1.02.88-1.54,1.3-1.06.82-2.17,1.57-3.33,2.23h0c-.69.39-1.4.76-2.13,1.09-.24.11-.49.22-.73.32-.49.21-.99.4-1.49.58-.5.18-1.01.35-1.52.5-.26.08-.52.15-.78.21-.51.14-1.03.26-1.56.36-1.83.37-3.71.56-5.61.56-2.18,0-4.38-.25-6.55-.77-27.02-6.43-52.11-17.84-74.24-33.2,3.94-4.52,6.9-9.93,8.53-15.88.95-3.44,1.46-7.06,1.46-10.81,0-22.45-18.2-40.64-40.64-40.64-3.59,0-7.07.47-10.39,1.34-5.97,1.57-11.41,4.48-15.97,8.37-14.7-21.66-25.64-46.08-31.88-72.32-2.57-10.79,1.4-22.24,10.36-28.78,6.92-5.05,11.42-13.22,11.42-22.44s-4.5-17.39-11.42-22.44c-8.96-6.54-12.93-17.99-10.36-28.78,5.7-23.95,15.3-46.37,28.11-66.58,3.94,4.54,8.87,8.2,14.46,10.64,4.98,2.18,10.47,3.39,16.25,3.39,22.45,0,40.64-18.2,40.64-40.64,0-6.84-1.7-13.3-4.69-18.95-2.84-5.37-6.84-10.03-11.67-13.64,23.52-17.47,50.63-30.36,80.02-37.35,2.17-.52,4.37-.77,6.55-.77,7.3,0,14.39,2.83,19.56,8.01.19.19.38.39.57.59.38.39.73.81,1.09,1.23.35.42.69.85,1.02,1.3,5.05,6.92,13.22,11.42,22.44,11.42s17.39-4.5,22.44-11.42c.33-.45.66-.88,1.02-1.3h0c.35-.43.72-.84,1.09-1.23h0c.47-.5.95-.98,1.45-1.43.5-.45,1.02-.88,1.54-1.3,1.06-.82,2.17-1.57,3.33-2.23h0c.69-.39,1.4-.76,2.13-1.09.24-.11.49-.22.73-.32.49-.21.99-.4,1.49-.58.5-.18,1.01-.35,1.52-.5.26-.08.52-.15.78-.21.52-.14,1.03-.26,1.56-.36,1.83-.37,3.71-.56,5.61-.56,2.18,0,4.38.25,6.55.77,27.84,6.62,53.63,18.54,76.26,34.62-5.39,3.06-10.01,7.33-13.49,12.43-4.46,6.52-7.07,14.41-7.07,22.91,0,22.45,18.2,40.64,40.64,40.64,8.18,0,15.81-2.42,22.18-6.59,5.18-3.37,9.54-7.9,12.71-13.21,14.71,21.67,25.65,46.09,31.9,72.34,2.57,10.79-1.4,22.24-10.36,28.78-6.92,5.05-11.42,13.22-11.42,22.44s4.5,17.39,11.42,22.44c8.96,6.54,12.93,17.99,10.36,28.78Z"/>
    <path class="st0" d="M1050.23,708.95c-19.3,12.56-40.64,21.75-63.16,27.12-.79.19-1.59.28-2.4.28-3.14,0-6.04-1.41-7.76-3.78-8.58-11.75-22.38-18.77-36.91-18.77s-28.33,7.02-36.91,18.77c-1.73,2.37-4.63,3.78-7.76,3.78-.81,0-1.61-.1-2.4-.28-25.16-5.99-48.85-16.77-69.86-31.66-1.64,5.95-4.59,11.36-8.53,15.88,22.14,15.36,47.22,26.77,74.24,33.2,2.17.52,4.37.77,6.55.77,1.89,0,3.77-.19,5.61-.56.53-.11,1.05-.23,1.56-.36.26-.07.51-.14.78-.21.51-.15,1.02-.32,1.52-.5.5-.18,1-.37,1.49-.58.24-.1.49-.21.73-.32.73-.33,1.44-.69,2.13-1.09h0c1.16-.66,2.27-1.4,3.33-2.23.53-.41,1.04-.85,1.54-1.3.5-.45.98-.93,1.45-1.43h0c.38-.41.74-.81,1.09-1.23h0c.35-.43.69-.86,1.02-1.31,5.05-6.92,13.22-11.42,22.44-11.42s17.39,4.5,22.44,11.42c.33.45.66.88,1.02,1.3.35.42.71.84,1.09,1.23.19.2.38.39.57.59,5.18,5.18,12.27,8.01,19.56,8.01,2.18,0,4.38-.25,6.55-.77,24.92-5.93,48.2-16.09,69.03-29.7-4.36-4.11-7.81-9.17-10.02-14.85ZM746.56,576.04c11.75-8.58,18.77-22.38,18.77-36.91s-7.02-28.33-18.77-36.91c-3.02-2.2-4.42-6.29-3.5-10.16,5.08-21.33,13.6-41.6,25.15-60.09-5.59-2.44-10.52-6.1-14.46-10.64-12.81,20.2-22.42,42.63-28.11,66.58-2.57,10.79,1.4,22.24,10.36,28.78,6.92,5.05,11.42,13.22,11.42,22.44s-4.5,17.39-11.42,22.44c-8.96,6.54-12.93,17.99-10.36,28.78,6.24,26.24,17.18,50.66,31.88,72.32,4.56-3.89,10-6.8,15.97-8.37-14.25-20.57-24.6-43.63-30.42-68.09-.93-3.88.48-7.96,3.5-10.16ZM1144,561.57c-6.92-5.05-11.42-13.22-11.42-22.44s4.5-17.39,11.42-22.44c8.96-6.54,12.93-17.99,10.36-28.78-6.25-26.25-17.19-50.67-31.9-72.34-3.18,5.31-7.54,9.84-12.71,13.21,12.59,19.33,21.81,40.71,27.19,63.28.93,3.88-.48,7.96-3.5,10.16-11.75,8.58-18.77,22.38-18.77,36.91s7.02,28.33,18.77,36.91c3.02,2.2,4.42,6.29,3.5,10.16-6.09,25.55-17.1,49.58-32.35,70.83,5.56,2.46,10.46,6.14,14.37,10.69,16.48-22.89,28.67-49.07,35.41-77.37,2.57-10.79-1.4-22.24-10.36-28.78ZM991.22,324.77c-2.17-.52-4.37-.77-6.55-.77-1.89,0-3.77.19-5.61.56-.53.11-1.04.23-1.56.36-.26.07-.51.14-.78.21-.51.15-1.02.32-1.52.5-.5.18-1,.37-1.49.58-.24.1-.49.21-.73.32-.73.33-1.44.69-2.13,1.09h0c-1.16.66-2.27,1.4-3.33,2.23-.53.41-1.04.85-1.54,1.3-.5.45-.98.93-1.45,1.43h0c-.37.4-.73.81-1.09,1.23h0c-.35.42-.69.86-1.02,1.31-5.05,6.92-13.22,11.42-22.44,11.42s-17.39-4.5-22.44-11.42c-.33-.45-.66-.88-1.02-1.3-.35-.42-.71-.84-1.09-1.23-.19-.2-.38-.39-.57-.59-5.18-5.18-12.27-8.01-19.56-8.01-2.18,0-4.38.25-6.55.77-29.4,6.99-56.51,19.89-80.02,37.35,4.84,3.61,8.84,8.26,11.67,13.64,21.66-15.88,46.28-27.33,72.5-33.57.79-.19,1.59-.28,2.4-.28,3.14,0,6.04,1.41,7.76,3.78,8.58,11.75,22.38,18.77,36.91,18.77s28.33-7.02,36.91-18.77c1.73-2.36,4.63-3.77,7.76-3.77.81,0,1.61.1,2.4.28,23.99,5.71,46.65,15.78,66.92,29.62,3.48-5.1,8.1-9.36,13.49-12.43-22.63-16.08-48.42-27.99-76.26-34.62Z"/>
  </g>
  <circle class="st0" cx="786.53" cy="395.81" r="31.65"/>
  <circle class="st0" cx="1086.9" cy="395.81" r="31.65"/>
  <circle class="st0" cx="1086.9" cy="691.4" r="31.65"/>
  <circle class="st0" cx="786.53" cy="691.4" r="31.65"/>
</svg>